<?xml version="1.0" encoding="utf-8"?>
<!-- Svg Vector Icons : http://www.onlinewebfonts.com/icon -->
<!DOCTYPE svg PUBLIC "-//W3C//DTD SVG 1.1//EN" "http://www.w3.org/Graphics/SVG/1.1/DTD/svg11.dtd">
<svg version="1.1" xmlns="http://www.w3.org/2000/svg" xmlns:xlink="http://www.w3.org/1999/xlink" x="0px" y="0px" viewBox="0 0 1000 1000" enable-background="new 0 0 1000 1000" xml:space="preserve">
<metadata> Svg Vector Icons : http://www.onlinewebfonts.com/icon </metadata>
<g><path d="M500,307.2L242.8,50C189.9-2.9,103.3-3.1,50.1,50.1C-3.5,103.7-3.2,189.6,50,242.8L307.2,500L50,757.2c-52.9,52.9-53.1,139.5,0.1,192.7c53.6,53.6,139.5,53.3,192.7,0.1L500,692.8L757.2,950c52.9,52.9,139.5,53.1,192.7-0.1c53.6-53.6,53.3-139.5,0.1-192.7L692.8,500L950,242.8c52.9-52.9,53.1-139.5-0.1-192.7C896.3-3.5,810.4-3.2,757.2,50L500,307.2z" style="fill:#a9b7b7"/></g>
</svg>