<?xml version="1.0" encoding="utf-8"?>
<!-- Generator: Adobe Illustrator 18.0.0, SVG Export Plug-In . SVG Version: 6.00 Build 0)  -->
<!DOCTYPE svg PUBLIC "-//W3C//DTD SVG 1.1//EN" "http://www.w3.org/Graphics/SVG/1.1/DTD/svg11.dtd">
<svg version="1.1" id="Layer_1" xmlns="http://www.w3.org/2000/svg" xmlns:xlink="http://www.w3.org/1999/xlink" x="0px" y="0px"
	 viewBox="113 137 183 183" enable-background="new 113 137 183 183" xml:space="preserve">
<g display="none">
	<rect y="0.1" display="inline" width="360" height="360"/>
</g>
<g>
	<path fill="#5C5B5D" d="M286,251.5l-69.4-69.4c-0.1-0.1-0.1-0.2-0.2-0.3c-3.3-3.3-7.6-4.9-11.9-4.9c-4.3,0-8.6,1.6-11.9,4.9
		c-0.1,0.1-0.1,0.2-0.2,0.3L123,251.5c-6.5,6.5-6.5,17.2,0,23.7c6.5,6.5,17.2,6.5,23.7,0l57.8-57.8l57.8,57.8
		c6.5,6.5,17.2,6.5,23.7,0C292.5,268.7,292.5,258,286,251.5z"/>
</g>
</svg>
